# xmcd
#
# Track frame offsets:
#	150
#	19450
#	35835
#	48930
#	64950
#	80825
#	94743
#	114250
#	129988
#	146208
#	160085
#	177313
#	201005
#	214173
#	228093
#	245405
#	262350
#
# Disc length: 3729 seconds
#
# Revision: 1
# Processed by: cddbd v1.5.1PL0 Copyright (c) Steve Scherf et al.
# Submitted via: audiograbber 1.83.01
#
DISCID=fb0e8f11
DTITLE=Claudia Jung - Wintertäume
DYEAR=1996
DGENRE=
TTITLE0=Ein Lied das von Liebe erzählt
TTITLE1=Weihnachten wirst du bei mir sein
TTITLE2=Kannst du noch Glauben
TTITLE3=Weihnachtszeit - Mistletoe and Wine
TTITLE4=Das Mädchen mit den Schwefelhölzern
TTITLE5=Solang noch Wunder möglich sind
TTITLE6=Saviour´s Day
TTITLE7=Glaub mir
TTITLE8=Wenn die Liebe geht
TTITLE9=Weisse Weihnacht
TTITLE10=Wenn ein neues Jahr geboren wird
TTITLE11=Weihnachten Zuhaus
TTITLE12=Stille Nacht
TTITLE13=Petit Papa Noel
TTITLE14=Merry Christmas
TTITLE15=Il Tamburino
TTITLE16=Nouvelle Année
EXTD=
EXTT0=
EXTT1=
EXTT2=
EXTT3=
EXTT4=
EXTT5=
EXTT6=
EXTT7=
EXTT8=
EXTT9=
EXTT10=
EXTT11=
EXTT12=
EXTT13=
EXTT14=
EXTT15=
EXTT16=
PLAYORDER=
